# xmcd
#
# Track frame offsets:
#	150
#	7126
#	34651
#	64351
#	109426
#	146325
#	179625
#	217800
#	246972
#
# Disc length: 3743 seconds
#
# Revision: 0
# Processed by: cddbd v1.5.1PL0 Copyright (c) Steve Scherf et al.
# Submitted via: dBpowerAMP V4.0
#
DISCID=860e9d09
DTITLE=Christoph Eidens - Cameroon Dance
DYEAR=1998
DGENRE=Blues
TTITLE0=Cameroon Intro
TTITLE1=Cameroon Dance
TTITLE2=Peter Pösken's Weltreise
TTITLE3=Gedanken in der Nacht
TTITLE4=Blues For Ornette
TTITLE5=Tango für Heinrich Band
TTITLE6=Waltz
TTITLE7=Turkish Tune
TTITLE8=Winter
EXTD=
EXTT0=
EXTT1=
EXTT2=
EXTT3=
EXTT4=
EXTT5=
EXTT6=
EXTT7=
EXTT8=
PLAYORDER=
